<svg width="16" height="17" viewBox="0 0 16 17" fill="none" xmlns="http://www.w3.org/2000/svg">
<path d="M9.06403 6.16533C9.58048 6.46259 10.2386 6.28267 10.5363 5.76112C10.8351 5.23742 10.5552 4.33248 10.649 3.37406C9.87733 3.93049 8.95956 4.14469 8.66184 4.66635C8.36302 5.18994 8.5406 5.85965 9.05795 6.16181L9.06403 6.16533Z" fill="white"/>
<path d="M10.5215 0.143286C10.005 -0.153978 9.34692 0.0259485 9.04927 0.547492C8.75038 1.0712 9.03032 1.97614 8.93657 2.93455C9.70819 2.37813 10.626 2.16393 10.9237 1.64227C11.2225 1.11868 11.0449 0.448961 10.5276 0.146799L10.5215 0.143286Z" fill="white"/>
<path d="M2.52153 14.1608C2.00883 13.8569 1.8338 13.1904 2.13145 12.6688C2.43033 12.1451 3.345 11.9379 4.11859 11.3766C4.02806 12.3308 4.30358 13.242 4.00586 13.7636C3.70704 14.2872 3.04492 14.4665 2.52758 14.1643L2.52153 14.1608Z" fill="white"/>
<path d="M13.4664 1.86329C12.9499 1.56602 12.2918 1.74595 11.9942 2.26749C11.6953 2.7912 11.9752 3.69614 11.8814 4.65455C12.6531 4.09813 13.5708 3.88393 13.8686 3.36227C14.1674 2.83868 13.9898 2.16896 13.4725 1.8668L13.4664 1.86329Z" fill="white"/>
<path d="M5.46642 15.8808C4.95371 15.5769 4.77868 14.9104 5.07633 14.3888C5.37522 13.8651 6.28988 13.6579 7.06347 13.0966C6.97295 14.0508 7.24846 14.962 6.95074 15.4836C6.65192 16.0072 5.98981 16.1865 5.47246 15.8843L5.46642 15.8808Z" fill="white"/>
<path d="M6.94809 9.87286C7.46079 10.1767 7.63582 10.8432 7.33817 11.3648C7.03928 11.8885 6.12462 12.0957 5.35103 12.657C5.44156 11.7028 5.16604 10.7917 5.46376 10.27C5.76258 9.74641 6.4247 9.56712 6.94204 9.86928L6.94809 9.87286Z" fill="white"/>
<path d="M9.06403 6.16533C9.58048 6.46259 10.2386 6.28267 10.5363 5.76112C10.8351 5.23742 10.5552 4.33248 10.649 3.37406C9.87733 3.93049 8.95956 4.14469 8.66184 4.66635C8.36302 5.18994 8.5406 5.85965 9.05795 6.16181L9.06403 6.16533Z" fill="white"/>
<path d="M10.5215 0.143286C10.005 -0.153978 9.34692 0.0259485 9.04927 0.547492C8.75038 1.0712 9.03032 1.97614 8.93657 2.93455C9.70819 2.37813 10.626 2.16393 10.9237 1.64227C11.2225 1.11868 11.0449 0.448961 10.5276 0.146799L10.5215 0.143286Z" fill="white"/>
<path d="M2.52153 14.1608C2.00883 13.8569 1.8338 13.1904 2.13145 12.6688C2.43033 12.1451 3.345 11.9379 4.11859 11.3766C4.02806 12.3308 4.30358 13.242 4.00586 13.7636C3.70704 14.2872 3.04492 14.4665 2.52758 14.1643L2.52153 14.1608Z" fill="white"/>
<path d="M13.4664 1.86329C12.9499 1.56602 12.2918 1.74595 11.9942 2.26749C11.6953 2.7912 11.9752 3.69614 11.8814 4.65455C12.6531 4.09813 13.5708 3.88393 13.8686 3.36227C14.1674 2.83868 13.9898 2.16896 13.4725 1.8668L13.4664 1.86329Z" fill="white"/>
<path d="M5.46642 15.8808C4.95371 15.5769 4.77868 14.9104 5.07633 14.3888C5.37522 13.8651 6.28988 13.6579 7.06347 13.0966C6.97295 14.0508 7.24846 14.962 6.95074 15.4836C6.65192 16.0072 5.98981 16.1865 5.47246 15.8843L5.46642 15.8808Z" fill="white"/>
<path d="M6.94809 9.87286C7.46079 10.1767 7.63582 10.8432 7.33817 11.3648C7.03928 11.8885 6.12462 12.0957 5.35103 12.657C5.44156 11.7028 5.16604 10.7917 5.46376 10.27C5.76258 9.74641 6.4247 9.56712 6.94204 9.86928L6.94809 9.87286Z" fill="white"/>
<path d="M10.1159 8.02262C10.1197 8.62372 10.6028 9.11033 11.1981 9.11033C11.7958 9.11033 12.4306 8.41261 13.2979 8.01554C12.4358 7.61773 11.7935 6.92078 11.1981 6.92078C10.6004 6.92078 10.1159 7.41121 10.1159 8.01553L10.1159 8.02262Z" fill="white"/>
<path d="M16 6.28849C15.9962 5.68739 15.5131 5.20078 14.9178 5.20078C14.3201 5.20078 13.6853 5.8985 12.818 6.29557C13.6801 6.69338 14.3224 7.39033 14.9178 7.39033C15.5155 7.39033 16 6.8999 16 6.29557L16 6.28849Z" fill="white"/>
<path d="M3.31878e-05 6.28849C0.0037814 5.68739 0.48687 5.20078 1.08218 5.20078C1.67995 5.20078 2.31467 5.8985 3.18202 6.29557C2.31987 6.69338 1.67761 7.39033 1.08218 7.39033C0.484536 7.39033 -7.26249e-09 6.8999 1.46021e-08 6.29557L3.31878e-05 6.28849Z" fill="white"/>
<path d="M16 9.72848C15.9962 9.12738 15.5131 8.64077 14.9178 8.64077C14.3201 8.64077 13.6853 9.33849 12.818 9.73556C13.6801 10.1334 14.3224 10.8303 14.9178 10.8303C15.5155 10.8303 16 10.3399 16 9.73556L16 9.72848Z" fill="white"/>
<path d="M3.31119e-05 9.72849C0.00378132 9.12739 0.48687 8.64078 1.08218 8.64078C1.67995 8.64078 2.31467 9.3385 3.18202 9.73557C2.31987 10.1334 1.67761 10.8303 1.08218 10.8303C0.484536 10.8303 -2.18645e-08 10.3399 0 9.73557L3.31119e-05 9.72849Z" fill="white"/>
<path d="M5.88407 8.02261C5.88032 8.6237 5.39723 9.11032 4.80192 9.11032C4.20415 9.11032 3.56943 8.4126 2.70208 8.01552C3.56423 7.61772 4.20649 6.92077 4.80192 6.92077C5.39956 6.92076 5.8841 7.4112 5.8841 8.01552L5.88407 8.02261Z" fill="white"/>
<path d="M10.1159 8.02262C10.1197 8.62372 10.6028 9.11033 11.1981 9.11033C11.7958 9.11033 12.4306 8.41261 13.2979 8.01554C12.4358 7.61773 11.7935 6.92078 11.1981 6.92078C10.6004 6.92078 10.1159 7.41121 10.1159 8.01553L10.1159 8.02262Z" fill="white"/>
<path d="M16 6.28849C15.9962 5.68739 15.5131 5.20078 14.9178 5.20078C14.3201 5.20078 13.6853 5.8985 12.818 6.29557C13.6801 6.69338 14.3224 7.39033 14.9178 7.39033C15.5155 7.39033 16 6.8999 16 6.29557L16 6.28849Z" fill="white"/>
<path d="M3.31878e-05 6.28849C0.0037814 5.68739 0.48687 5.20078 1.08218 5.20078C1.67995 5.20078 2.31467 5.8985 3.18202 6.29557C2.31987 6.69338 1.67761 7.39033 1.08218 7.39033C0.484536 7.39033 -7.26249e-09 6.8999 1.46021e-08 6.29557L3.31878e-05 6.28849Z" fill="white"/>
<path d="M16 9.72848C15.9962 9.12738 15.5131 8.64077 14.9178 8.64077C14.3201 8.64077 13.6853 9.33849 12.818 9.73556C13.6801 10.1334 14.3224 10.8303 14.9178 10.8303C15.5155 10.8303 16 10.3399 16 9.73556L16 9.72848Z" fill="white"/>
<path d="M3.31119e-05 9.72849C0.00378132 9.12739 0.48687 8.64078 1.08218 8.64078C1.67995 8.64078 2.31467 9.3385 3.18202 9.73557C2.31987 10.1334 1.67761 10.8303 1.08218 10.8303C0.484536 10.8303 -2.18645e-08 10.3399 0 9.73557L3.31119e-05 9.72849Z" fill="white"/>
<path d="M5.88407 8.02261C5.88032 8.6237 5.39723 9.11032 4.80192 9.11032C4.20415 9.11032 3.56943 8.4126 2.70208 8.01552C3.56423 7.61772 4.20649 6.92077 4.80192 6.92077C5.39956 6.92076 5.8841 7.4112 5.8841 8.01552L5.88407 8.02261Z" fill="white"/>
<path d="M6.936 6.16533C6.41954 6.46259 5.76142 6.28267 5.46377 5.76112C5.16488 5.23742 5.44482 4.33248 5.35107 3.37406C6.12269 3.93049 7.04046 4.14469 7.33818 4.66635C7.637 5.18994 7.45942 5.85965 6.94208 6.16182L6.936 6.16533Z" fill="white"/>
<path d="M5.47852 0.14328C5.99497 -0.153984 6.65309 0.0259427 6.95074 0.547487C7.24963 1.07119 6.96969 1.97613 7.06344 2.93454C6.29182 2.37812 5.37405 2.16392 5.07633 1.64226C4.77751 1.11867 4.95509 0.448955 5.47244 0.146794L5.47852 0.14328Z" fill="white"/>
<path d="M13.4785 14.1608C13.9912 13.8569 14.1662 13.1904 13.8686 12.6688C13.5697 12.1451 12.655 11.9379 11.8814 11.3766C11.9719 12.3308 11.6964 13.242 11.9942 13.7636C12.293 14.2872 12.9551 14.4665 13.4724 14.1643L13.4785 14.1608Z" fill="white"/>
<path d="M2.53363 1.86327C3.05009 1.56601 3.70821 1.74594 4.00586 2.26748C4.30475 2.79119 4.02481 3.69613 4.11856 4.65454C3.34694 4.09812 2.42917 3.88392 2.13145 3.36226C1.83263 2.83867 2.01021 2.16895 2.52755 1.86679L2.53363 1.86327Z" fill="white"/>
<path d="M10.5336 15.8808C11.0463 15.5769 11.2213 14.9104 10.9237 14.3888C10.6248 13.8651 9.71013 13.6579 8.93654 13.0966C9.02707 14.0508 8.75155 14.962 9.04927 15.4836C9.34809 16.0072 10.0102 16.1865 10.5275 15.8843L10.5336 15.8808Z" fill="white"/>
<path d="M9.05193 9.87285C8.53922 10.1767 8.36419 10.8432 8.66184 11.3648C8.96073 11.8885 9.87539 12.0957 10.649 12.657C10.5585 11.7028 10.834 10.7916 10.5363 10.27C10.2374 9.74639 9.57532 9.56711 9.05797 9.86927L9.05193 9.87285Z" fill="white"/>
<path d="M6.936 6.16533C6.41954 6.46259 5.76142 6.28267 5.46377 5.76112C5.16488 5.23742 5.44482 4.33248 5.35107 3.37406C6.12269 3.93049 7.04046 4.14469 7.33818 4.66635C7.637 5.18994 7.45942 5.85965 6.94208 6.16182L6.936 6.16533Z" fill="white"/>
<path d="M5.47852 0.14328C5.99497 -0.153984 6.65309 0.0259427 6.95074 0.547487C7.24963 1.07119 6.96969 1.97613 7.06344 2.93454C6.29182 2.37812 5.37405 2.16392 5.07633 1.64226C4.77751 1.11867 4.95509 0.448955 5.47244 0.146794L5.47852 0.14328Z" fill="white"/>
<path d="M13.4785 14.1608C13.9912 13.8569 14.1662 13.1904 13.8686 12.6688C13.5697 12.1451 12.655 11.9379 11.8814 11.3766C11.9719 12.3308 11.6964 13.242 11.9942 13.7636C12.293 14.2872 12.9551 14.4665 13.4724 14.1643L13.4785 14.1608Z" fill="white"/>
<path d="M2.53363 1.86327C3.05009 1.56601 3.70821 1.74594 4.00586 2.26748C4.30475 2.79119 4.02481 3.69613 4.11856 4.65454C3.34694 4.09812 2.42917 3.88392 2.13145 3.36226C1.83263 2.83867 2.01021 2.16895 2.52755 1.86679L2.53363 1.86327Z" fill="white"/>
<path d="M10.5336 15.8808C11.0463 15.5769 11.2213 14.9104 10.9237 14.3888C10.6248 13.8651 9.71013 13.6579 8.93654 13.0966C9.02707 14.0508 8.75155 14.962 9.04927 15.4836C9.34809 16.0072 10.0102 16.1865 10.5275 15.8843L10.5336 15.8808Z" fill="white"/>
<path d="M9.05193 9.87285C8.53922 10.1767 8.36419 10.8432 8.66184 11.3648C8.96073 11.8885 9.87539 12.0957 10.649 12.657C10.5585 11.7028 10.834 10.7916 10.5363 10.27C10.2374 9.74639 9.57532 9.56711 9.05797 9.86927L9.05193 9.87285Z" fill="white"/>
</svg>
