<svg width="32" height="33" viewBox="0 0 32 33" fill="none" xmlns="http://www.w3.org/2000/svg">
<path d="M18.1281 12.3307C19.161 12.9252 20.4772 12.5653 21.0725 11.5222C21.6703 10.4748 21.1104 8.66495 21.2979 6.74813C19.7547 7.86098 17.9191 8.28938 17.3237 9.33269C16.726 10.3799 17.0812 11.7193 18.1159 12.3236L18.1281 12.3307Z" fill="#F4F8EF"/>
<path d="M21.043 0.286572C20.0101 -0.307956 18.6938 0.0518971 18.0985 1.09498C17.5008 2.14239 18.0606 3.95228 17.8731 5.8691C19.4164 4.75625 21.2519 4.32785 21.8474 3.28453C22.445 2.23736 22.0898 0.897921 21.0551 0.293599L21.043 0.286572Z" fill="#F4F8EF"/>
<path d="M5.04306 28.3215C4.01765 27.7138 3.66759 26.3808 4.2629 25.3377C4.86067 24.2903 6.68999 23.8758 8.23718 22.7532C8.05612 24.6616 8.60715 26.4839 8.01172 27.5272C7.41408 28.5744 6.08985 28.933 5.05516 28.3287L5.04306 28.3215Z" fill="#F4F8EF"/>
<path d="M26.9328 3.72657C25.8998 3.13204 24.5836 3.4919 23.9883 4.53499C23.3905 5.58239 23.9504 7.39228 23.7629 9.3091C25.3061 8.19625 27.1417 7.76785 27.7371 6.72454C28.3348 5.67736 27.9796 4.33792 26.9449 3.7336L26.9328 3.72657Z" fill="#F4F8EF"/>
<path d="M10.9328 31.7615C9.90742 31.1538 9.55736 29.8208 10.1527 28.7777C10.7504 27.7303 12.5798 27.3158 14.1269 26.1932C13.9459 28.1016 14.4969 29.9239 13.9015 30.9672C13.3038 32.0144 11.9796 32.373 10.9449 31.7687L10.9328 31.7615Z" fill="#F4F8EF"/>
<path d="M13.8962 19.7457C14.9216 20.3534 15.2716 21.6865 14.6763 22.7295C14.0786 23.7769 12.2492 24.1914 10.7021 25.3141C10.8831 23.4056 10.3321 21.5833 10.9275 20.54C11.5252 19.4928 12.8494 19.1342 13.8841 19.7386L13.8962 19.7457Z" fill="#F4F8EF"/>
<path d="M18.1281 12.3307C19.161 12.9252 20.4772 12.5653 21.0725 11.5222C21.6703 10.4748 21.1104 8.66495 21.2979 6.74813C19.7547 7.86098 17.9191 8.28938 17.3237 9.33269C16.726 10.3799 17.0812 11.7193 18.1159 12.3236L18.1281 12.3307Z" fill="#F4F8EF"/>
<path d="M21.043 0.286572C20.0101 -0.307956 18.6938 0.0518971 18.0985 1.09498C17.5008 2.14239 18.0606 3.95228 17.8731 5.8691C19.4164 4.75625 21.2519 4.32785 21.8474 3.28453C22.445 2.23736 22.0898 0.897921 21.0551 0.293599L21.043 0.286572Z" fill="#F4F8EF"/>
<path d="M5.04306 28.3215C4.01765 27.7138 3.66759 26.3808 4.2629 25.3377C4.86067 24.2903 6.68999 23.8758 8.23718 22.7532C8.05612 24.6616 8.60715 26.4839 8.01172 27.5272C7.41408 28.5744 6.08985 28.933 5.05516 28.3287L5.04306 28.3215Z" fill="#F4F8EF"/>
<path d="M26.9328 3.72657C25.8998 3.13204 24.5836 3.4919 23.9883 4.53499C23.3905 5.58239 23.9504 7.39228 23.7629 9.3091C25.3061 8.19625 27.1417 7.76785 27.7371 6.72454C28.3348 5.67736 27.9796 4.33792 26.9449 3.7336L26.9328 3.72657Z" fill="#F4F8EF"/>
<path d="M10.9328 31.7615C9.90742 31.1538 9.55736 29.8208 10.1527 28.7777C10.7504 27.7303 12.5798 27.3158 14.1269 26.1932C13.9459 28.1016 14.4969 29.9239 13.9015 30.9672C13.3038 32.0144 11.9796 32.373 10.9449 31.7687L10.9328 31.7615Z" fill="#F4F8EF"/>
<path d="M13.8962 19.7457C14.9216 20.3534 15.2716 21.6865 14.6763 22.7295C14.0786 23.7769 12.2492 24.1914 10.7021 25.3141C10.8831 23.4056 10.3321 21.5833 10.9275 20.54C11.5252 19.4928 12.8494 19.1342 13.8841 19.7386L13.8962 19.7457Z" fill="#F4F8EF"/>
<path d="M20.2318 16.0452C20.2393 17.2474 21.2055 18.2207 22.3961 18.2207C23.5917 18.2207 24.8611 16.8252 26.5958 16.0311C24.8715 15.2355 23.587 13.8416 22.3961 13.8416C21.2009 13.8416 20.2318 14.8224 20.2318 16.0311L20.2318 16.0452Z" fill="#F4F8EF"/>
<path d="M31.9999 12.577C31.9924 11.3748 31.0263 10.4016 29.8356 10.4016C28.6401 10.4016 27.3707 11.797 25.636 12.5911C27.3603 13.3868 28.6448 14.7807 29.8356 14.7807C31.0309 14.7807 32 13.7998 32 12.5911L31.9999 12.577Z" fill="#F4F8EF"/>
<path d="M6.63755e-05 12.577C0.0075628 11.3748 0.973741 10.4016 2.16435 10.4016C3.35989 10.4016 4.62934 11.797 6.36403 12.5911C4.63973 13.3868 3.35522 14.7807 2.16435 14.7807C0.969072 14.7807 -1.4525e-08 13.7998 2.92041e-08 12.5911L6.63755e-05 12.577Z" fill="#F4F8EF"/>
<path d="M31.9999 19.457C31.9924 18.2548 31.0263 17.2815 29.8356 17.2815C28.6401 17.2815 27.3707 18.677 25.636 19.4711C27.3603 20.2667 28.6448 21.6606 29.8356 21.6606C31.0309 21.6606 32 20.6798 32 19.4711L31.9999 19.457Z" fill="#F4F8EF"/>
<path d="M6.62238e-05 19.457C0.00756265 18.2548 0.973741 17.2816 2.16435 17.2816C3.35989 17.2816 4.62935 18.677 6.36403 19.4711C4.63973 20.2668 3.35522 21.6607 2.16435 21.6607C0.969072 21.6607 -4.37291e-08 20.6798 0 19.4711L6.62238e-05 19.457Z" fill="#F4F8EF"/>
<path d="M11.7681 16.0452C11.7606 17.2474 10.7945 18.2206 9.60385 18.2206C8.40831 18.2206 7.13885 16.8252 5.40416 16.031C7.12846 15.2354 8.41297 13.8415 9.60385 13.8415C10.7991 13.8415 11.7682 14.8224 11.7682 16.031L11.7681 16.0452Z" fill="#F4F8EF"/>
<path d="M20.2318 16.0452C20.2393 17.2474 21.2055 18.2207 22.3961 18.2207C23.5917 18.2207 24.8611 16.8252 26.5958 16.0311C24.8715 15.2355 23.587 13.8416 22.3961 13.8416C21.2009 13.8416 20.2318 14.8224 20.2318 16.0311L20.2318 16.0452Z" fill="#F4F8EF"/>
<path d="M31.9999 12.577C31.9924 11.3748 31.0263 10.4016 29.8356 10.4016C28.6401 10.4016 27.3707 11.797 25.636 12.5911C27.3603 13.3868 28.6448 14.7807 29.8356 14.7807C31.0309 14.7807 32 13.7998 32 12.5911L31.9999 12.577Z" fill="#F4F8EF"/>
<path d="M6.63755e-05 12.577C0.0075628 11.3748 0.973741 10.4016 2.16435 10.4016C3.35989 10.4016 4.62934 11.797 6.36403 12.5911C4.63973 13.3868 3.35522 14.7807 2.16435 14.7807C0.969072 14.7807 -1.4525e-08 13.7998 2.92041e-08 12.5911L6.63755e-05 12.577Z" fill="#F4F8EF"/>
<path d="M31.9999 19.457C31.9924 18.2548 31.0263 17.2815 29.8356 17.2815C28.6401 17.2815 27.3707 18.677 25.636 19.4711C27.3603 20.2667 28.6448 21.6606 29.8356 21.6606C31.0309 21.6606 32 20.6798 32 19.4711L31.9999 19.457Z" fill="#F4F8EF"/>
<path d="M6.62238e-05 19.457C0.00756265 18.2548 0.973741 17.2816 2.16435 17.2816C3.35989 17.2816 4.62935 18.677 6.36403 19.4711C4.63973 20.2668 3.35522 21.6607 2.16435 21.6607C0.969072 21.6607 -4.37291e-08 20.6798 0 19.4711L6.62238e-05 19.457Z" fill="#F4F8EF"/>
<path d="M11.7681 16.0452C11.7606 17.2474 10.7945 18.2206 9.60385 18.2206C8.40831 18.2206 7.13885 16.8252 5.40416 16.031C7.12846 15.2354 8.41297 13.8415 9.60385 13.8415C10.7991 13.8415 11.7682 14.8224 11.7682 16.031L11.7681 16.0452Z" fill="#F4F8EF"/>
<path d="M13.872 12.3307C12.8391 12.9252 11.5228 12.5653 10.9275 11.5222C10.3298 10.4748 10.8896 8.66495 10.7021 6.74813C12.2454 7.86098 14.0809 8.28938 14.6764 9.33269C15.274 10.3799 14.9188 11.7193 13.8842 12.3236L13.872 12.3307Z" fill="#F4F8EF"/>
<path d="M10.957 0.28656C11.9899 -0.307968 13.3062 0.0518854 13.9015 1.09497C14.4993 2.14238 13.9394 3.95226 14.1269 5.86909C12.5836 4.75624 10.7481 4.32784 10.1527 3.28452C9.55503 2.23734 9.91019 0.897909 10.9449 0.293587L10.957 0.28656Z" fill="#F4F8EF"/>
<path d="M26.957 28.3215C27.9824 27.7138 28.3324 26.3808 27.7371 25.3377C27.1394 24.2903 25.31 23.8758 23.7628 22.7532C23.9439 24.6616 23.3929 26.4839 23.9883 27.5272C24.5859 28.5744 25.9102 28.933 26.9449 28.3287L26.957 28.3215Z" fill="#F4F8EF"/>
<path d="M5.06727 3.72655C6.10018 3.13202 7.41641 3.49187 8.01172 4.53496C8.60949 5.58237 8.04962 7.39225 8.23712 9.30908C6.69388 8.19623 4.85834 7.76783 4.2629 6.72451C3.66526 5.67733 4.02042 4.3379 5.05511 3.73358L5.06727 3.72655Z" fill="#F4F8EF"/>
<path d="M21.0672 31.7615C22.0926 31.1539 22.4427 29.8208 21.8474 28.7777C21.2496 27.7303 19.4203 27.3158 17.8731 26.1932C18.0541 28.1016 17.5031 29.9239 18.0985 30.9672C18.6962 32.0144 20.0204 32.373 21.0551 31.7687L21.0672 31.7615Z" fill="#F4F8EF"/>
<path d="M18.1039 19.7457C17.0784 20.3534 16.7284 21.6864 17.3237 22.7295C17.9215 23.7769 19.7508 24.1914 21.298 25.314C21.1169 23.4056 21.6679 21.5833 21.0725 20.54C20.4749 19.4928 19.1506 19.1342 18.1159 19.7385L18.1039 19.7457Z" fill="#F4F8EF"/>
<path d="M13.872 12.3307C12.8391 12.9252 11.5228 12.5653 10.9275 11.5222C10.3298 10.4748 10.8896 8.66495 10.7021 6.74813C12.2454 7.86098 14.0809 8.28938 14.6764 9.33269C15.274 10.3799 14.9188 11.7193 13.8842 12.3236L13.872 12.3307Z" fill="#F4F8EF"/>
<path d="M10.957 0.28656C11.9899 -0.307968 13.3062 0.0518854 13.9015 1.09497C14.4993 2.14238 13.9394 3.95226 14.1269 5.86909C12.5836 4.75624 10.7481 4.32784 10.1527 3.28452C9.55503 2.23734 9.91019 0.897909 10.9449 0.293587L10.957 0.28656Z" fill="#F4F8EF"/>
<path d="M26.957 28.3215C27.9824 27.7138 28.3324 26.3808 27.7371 25.3377C27.1394 24.2903 25.31 23.8758 23.7628 22.7532C23.9439 24.6616 23.3929 26.4839 23.9883 27.5272C24.5859 28.5744 25.9102 28.933 26.9449 28.3287L26.957 28.3215Z" fill="#F4F8EF"/>
<path d="M5.06727 3.72655C6.10018 3.13202 7.41641 3.49187 8.01172 4.53496C8.60949 5.58237 8.04962 7.39225 8.23712 9.30908C6.69388 8.19623 4.85834 7.76783 4.2629 6.72451C3.66526 5.67733 4.02042 4.3379 5.05511 3.73358L5.06727 3.72655Z" fill="#F4F8EF"/>
<path d="M21.0672 31.7615C22.0926 31.1539 22.4427 29.8208 21.8474 28.7777C21.2496 27.7303 19.4203 27.3158 17.8731 26.1932C18.0541 28.1016 17.5031 29.9239 18.0985 30.9672C18.6962 32.0144 20.0204 32.373 21.0551 31.7687L21.0672 31.7615Z" fill="#F4F8EF"/>
<path d="M18.1039 19.7457C17.0784 20.3534 16.7284 21.6864 17.3237 22.7295C17.9215 23.7769 19.7508 24.1914 21.298 25.314C21.1169 23.4056 21.6679 21.5833 21.0725 20.54C20.4749 19.4928 19.1506 19.1342 18.1159 19.7385L18.1039 19.7457Z" fill="#F4F8EF"/>
</svg>
