<svg width="400" height="266" viewBox="0 0 400 266" fill="none" xmlns="http://www.w3.org/2000/svg">
<mask id="mask0_0_1" style="mask-type:luminance" maskUnits="userSpaceOnUse" x="0" y="1" width="494" height="265">
<path d="M488.522 1.2793H5.51323C2.74531 1.2793 0.501465 4.71449 0.501465 8.95202V258.316C0.501465 262.553 2.74531 265.988 5.51323 265.988H488.522C491.29 265.988 493.534 262.553 493.534 258.316V8.95202C493.534 4.71449 491.29 1.2793 488.522 1.2793Z" fill="white"/>
</mask>
<g mask="url(#mask0_0_1)">
<path d="M488.521 1.3584H5.37259C2.60387 1.3584 0.359375 4.79796 0.359375 9.04089V258.722C0.359375 262.965 2.60387 266.404 5.37259 266.404H488.521C491.29 266.404 493.534 262.965 493.534 258.722V9.04089C493.534 4.79796 491.29 1.3584 488.521 1.3584Z" fill="white"/>
<path d="M3.07129 1.87656L754.579 1.85449" stroke="#F9F9F9" stroke-width="0.855894" stroke-linecap="round"/>
<path d="M3.07129 35.7152L754.579 35.6934" stroke="#F9F9F9" stroke-width="0.855894" stroke-linecap="round"/>
<path d="M3.07129 69.555L754.579 69.5332" stroke="#F9F9F9" stroke-width="0.855894" stroke-linecap="round"/>
<path d="M3.07129 103.394L754.579 103.371" stroke="#F9F9F9" stroke-width="0.855894" stroke-linecap="round"/>
<path d="M3.07129 137.234L754.579 137.211" stroke="#F9F9F9" stroke-width="0.855894" stroke-linecap="round"/>
<path d="M3.07129 171.072L754.579 171.049" stroke="#F9F9F9" stroke-width="0.855894" stroke-linecap="round"/>
<path d="M3.07129 204.91L754.579 204.889" stroke="#F9F9F9" stroke-width="0.855894" stroke-linecap="round"/>
<path d="M3.07129 238.75L754.579 238.729" stroke="#F9F9F9" stroke-width="0.855894" stroke-linecap="round"/>
<path d="M0.196289 238.75V0.895508" stroke="#F2F2F2" stroke-width="0.855894" stroke-linecap="round"/>
<path d="M63.0625 238.75V0.895508" stroke="#F2F2F2" stroke-width="0.855894" stroke-linecap="round"/>
<path d="M125.927 238.75V0.895508" stroke="#F2F2F2" stroke-width="0.855894" stroke-linecap="round"/>
<path d="M188.792 238.75V0.895508" stroke="#F2F2F2" stroke-width="0.855894" stroke-linecap="round"/>
<path d="M251.656 238.75V0.895508" stroke="#F2F2F2" stroke-width="0.855894" stroke-linecap="round"/>
<path d="M314.524 238.75V0.895508" stroke="#F2F2F2" stroke-width="0.855894" stroke-linecap="round"/>
<path d="M377.388 238.75V0.895508" stroke="#F2F2F2" stroke-width="0.855894" stroke-linecap="round"/>
<path d="M12.4607 31.9462V26.3642L10.9558 27.304V26.4985L12.5471 25.5007H13.2084V31.9462H12.4607ZM15.8307 31.9462V26.3642L14.3257 27.304V26.4985L15.917 25.5007H16.5784V31.9462H15.8307ZM20.6339 32.0805C19.0715 32.0805 17.9787 30.8142 17.9787 28.7231C17.9787 26.6327 19.0619 25.3664 20.6339 25.3664C22.206 25.3664 23.2891 26.6327 23.2891 28.7231C23.2891 30.8142 22.1964 32.0805 20.6339 32.0805ZM20.6339 31.3798C21.7746 31.3798 22.5414 30.4114 22.5414 28.7231C22.5414 27.0355 21.7746 26.0671 20.6339 26.0671C19.4932 26.0671 18.7264 27.0355 18.7264 28.7231C18.7264 30.4114 19.4932 31.3798 20.6339 31.3798ZM24.3489 31.9462V24.9443H25.0966V29.1258H25.1157L27.2341 26.8626H28.2885L26.4001 28.8288L28.4132 31.9462H27.5313L25.8826 29.3658H25.8634L25.0966 30.1815V31.9462H24.3489Z" fill="#828282"/>
<path d="M11.2027 65.5929V60.0117L9.69775 60.9516V60.146L11.289 59.1482H11.9504V65.5929H11.2027ZM16.0059 65.7272C14.4435 65.7272 13.3507 64.4618 13.3507 62.3706C13.3507 60.2802 14.4339 59.014 16.0059 59.014C17.578 59.014 18.6611 60.2802 18.6611 62.3706C18.6611 64.4618 17.5684 65.7272 16.0059 65.7272ZM16.0059 65.0273C17.1466 65.0273 17.9134 64.059 17.9134 62.3706C17.9134 60.683 17.1466 59.7138 16.0059 59.7138C14.8652 59.7138 14.0984 60.683 14.0984 62.3706C14.0984 64.059 14.8652 65.0273 16.0059 65.0273ZM22.1748 65.7272C20.6123 65.7272 19.5196 64.4618 19.5196 62.3706C19.5196 60.2802 20.6028 59.014 22.1748 59.014C23.7468 59.014 24.83 60.2802 24.83 62.3706C24.83 64.4618 23.7372 65.7272 22.1748 65.7272ZM22.1748 65.0273C23.3154 65.0273 24.0823 64.059 24.0823 62.3706C24.0823 60.683 23.3154 59.7138 22.1748 59.7138C21.0341 59.7138 20.2672 60.683 20.2672 62.3706C20.2672 64.059 21.0341 65.0273 22.1748 65.0273ZM25.8897 65.5929V58.5919H26.6374V62.7734H26.6566L28.7749 60.5102H29.8293L27.941 62.4763L29.954 65.5929H29.0721L27.4234 63.0134H27.4042L26.6374 63.8282V65.5929H25.8897Z" fill="#828282"/>
<path d="M14.1702 92.6633C15.6847 92.6633 16.6816 93.6602 16.6816 95.6457C16.6816 98.2546 15.9531 99.3858 14.2373 99.3858C13.1637 99.3858 12.3585 98.7917 12.0806 97.7461L12.809 97.5539C13.0583 98.341 13.5663 98.6666 14.2373 98.6666C15.3013 98.6666 15.7997 98.0146 15.8765 96.3363H15.8477C15.5026 96.7869 14.9178 97.0655 14.1318 97.0655C12.6844 97.0655 11.793 96.2113 11.793 94.8401C11.793 93.5738 12.7995 92.6633 14.1702 92.6633ZM14.1702 96.3648C15.1192 96.3648 15.7614 95.7707 15.7614 94.8879C15.7614 93.9866 15.1288 93.3825 14.1702 93.3825C13.202 93.3825 12.5694 93.9674 12.5694 94.8401C12.5694 95.7799 13.1925 96.3648 14.1702 96.3648ZM20.198 99.3765C18.6356 99.3765 17.5428 98.1103 17.5428 96.0199C17.5428 93.9287 18.626 92.6633 20.198 92.6633C21.7701 92.6633 22.8532 93.9287 22.8532 96.0199C22.8532 98.1103 21.7604 99.3765 20.198 99.3765ZM20.198 98.6767C21.3387 98.6767 22.1055 97.7075 22.1055 96.0199C22.1055 94.3315 21.3387 93.3632 20.198 93.3632C19.0573 93.3632 18.2905 94.3315 18.2905 96.0199C18.2905 97.7075 19.0573 98.6767 20.198 98.6767ZM23.9129 99.2423V92.2412H24.6606V96.4227H24.6798L26.7982 94.1595H27.8526L25.9643 96.1257L27.9772 99.2423H27.0953L25.4466 96.6627H25.4274L24.6606 97.4775V99.2423H23.9129Z" fill="#828282"/>
<path d="M14.1709 133.034C12.6755 133.034 11.6978 132.258 11.6978 131.107C11.6978 130.292 12.1771 129.678 12.9822 129.381V129.361C12.3688 129.054 12.0716 128.613 12.0716 128.009C12.0716 127.031 12.9535 126.311 14.1709 126.311C15.3882 126.311 16.2701 127.031 16.2701 128.009C16.2701 128.603 15.973 129.045 15.369 129.361V129.381C16.155 129.678 16.6439 130.292 16.6439 131.107C16.6439 132.258 15.6662 133.034 14.1709 133.034ZM14.1709 129.073C14.9857 129.073 15.532 128.671 15.532 128.047C15.532 127.414 14.976 126.982 14.1709 126.982C13.3561 126.982 12.8192 127.414 12.8192 128.047C12.8192 128.671 13.3561 129.073 14.1709 129.073ZM14.1709 132.315C15.2061 132.315 15.8675 131.836 15.8675 131.059C15.8675 130.292 15.2061 129.773 14.1709 129.773C13.1356 129.773 12.4742 130.292 12.4742 131.059C12.4742 131.836 13.126 132.315 14.1709 132.315ZM19.8804 133.025C18.3179 133.025 17.2252 131.759 17.2252 129.668C17.2252 127.577 18.3084 126.311 19.8804 126.311C21.4524 126.311 22.5356 127.577 22.5356 129.668C22.5356 131.759 21.4429 133.025 19.8804 133.025ZM19.8804 132.325C21.0211 132.325 21.7879 131.356 21.7879 129.668C21.7879 127.98 21.0211 127.012 19.8804 127.012C18.7397 127.012 17.9729 127.98 17.9729 129.668C17.9729 131.356 18.7397 132.325 19.8804 132.325ZM23.5953 132.891V125.89H24.343V130.071H24.3622L26.4805 127.807H27.535L25.6466 129.773L27.6596 132.891H26.7777L25.129 130.31H25.1099L24.343 131.126V132.891H23.5953Z" fill="#828282"/>
<path d="M12.8277 166.54L15.5595 160.804V160.794H12.0225V160.094H16.4031V160.757L13.6616 166.54H12.8277ZM19.2057 166.674C17.6433 166.674 16.5505 165.408 16.5505 163.317C16.5505 161.226 17.6337 159.96 19.2057 159.96C20.7778 159.96 21.8609 161.226 21.8609 163.317C21.8609 165.408 20.7682 166.674 19.2057 166.674ZM19.2057 165.974C20.3464 165.974 21.1132 165.005 21.1132 163.317C21.1132 161.629 20.3464 160.66 19.2057 160.66C18.065 160.66 17.2982 161.629 17.2982 163.317C17.2982 165.005 18.065 165.974 19.2057 165.974ZM22.9207 166.54V159.538H23.6683V163.72H23.6875L25.8059 161.456H26.8603L24.972 163.423L26.985 166.54H26.1031L24.4543 163.96H24.4352L23.6683 164.775V166.54H22.9207Z" fill="#828282"/>
<path d="M14.2984 195.899C15.6116 195.899 16.5894 196.83 16.5894 198.105C16.5894 199.458 15.535 200.321 14.2122 200.321C12.4676 200.321 11.4707 199.065 11.4707 197.06C11.4707 195.037 12.6497 193.608 14.241 193.608C15.372 193.608 16.206 194.202 16.484 195.324L15.7555 195.496C15.5158 194.643 14.9982 194.307 14.2601 194.307C13.1578 194.307 12.3238 195.314 12.2663 196.888H12.295C12.621 196.302 13.3494 195.899 14.2984 195.899ZM14.2122 199.621C15.0749 199.621 15.8417 199.074 15.8417 198.105C15.8417 197.166 15.1515 196.561 14.2026 196.561C13.1865 196.561 12.506 197.223 12.506 198.105C12.506 198.969 13.1674 199.621 14.2122 199.621ZM19.9203 200.321C18.3578 200.321 17.2651 199.055 17.2651 196.964C17.2651 194.873 18.3483 193.608 19.9203 193.608C21.4923 193.608 22.5755 194.873 22.5755 196.964C22.5755 199.055 21.4828 200.321 19.9203 200.321ZM19.9203 199.621C21.061 199.621 21.8278 198.653 21.8278 196.964C21.8278 195.276 21.061 194.307 19.9203 194.307C18.7796 194.307 18.0128 195.276 18.0128 196.964C18.0128 198.653 18.7796 199.621 19.9203 199.621ZM23.6352 200.187V193.185H24.3829V197.367H24.4021L26.5204 195.104H27.5749L25.6865 197.07L27.6995 200.187H26.8177L25.1689 197.607H25.1498L24.3829 198.422V200.187H23.6352Z" fill="#828282"/>
<path d="M14.2956 233.969C12.9633 233.969 12.1005 233.288 11.8418 232.127L12.5607 231.945C12.762 232.818 13.3083 233.269 14.2956 233.269C15.2926 233.269 15.9732 232.636 15.9732 231.677C15.9732 230.785 15.3213 230.123 14.2956 230.123C13.5959 230.123 13.0879 230.401 12.6661 230.814L11.9855 230.641L12.6374 227.389H16.1457V228.09H13.2125L12.8387 229.912L12.8579 229.922C13.2604 229.624 13.7684 229.461 14.4107 229.461C15.7527 229.461 16.7208 230.401 16.7208 231.677C16.7208 233.049 15.7239 233.969 14.2956 233.969ZM20.1521 233.969C18.5896 233.969 17.4969 232.703 17.4969 230.613C17.4969 228.521 18.5801 227.255 20.1521 227.255C21.7241 227.255 22.8073 228.521 22.8073 230.613C22.8073 232.703 21.7145 233.969 20.1521 233.969ZM20.1521 233.269C21.2927 233.269 22.0596 232.3 22.0596 230.613C22.0596 228.924 21.2927 227.956 20.1521 227.956C19.0114 227.956 18.2445 228.924 18.2445 230.613C18.2445 232.3 19.0114 233.269 20.1521 233.269ZM23.867 233.835V226.834H24.6147V231.015H24.6339L26.7522 228.751H27.8066L25.9183 230.717L27.9313 233.835H27.0494L25.4007 231.255H25.3815L24.6147 232.07V233.835H23.867Z" fill="#828282"/>
<path d="M65.7959 170.774L132.338 125.832L197.984 113.729H277.876L331.938 136.592L378.955 143.317L438.391 166.853H485.409L527.102 187.027L616.701 194.424L671.702 201.821L749.768 213.925L815.414 230.738" stroke="#453848" stroke-width="1.28385" stroke-linecap="round" stroke-dasharray="2.57 2.57"/>
<path d="M64.918 172.232L130.066 113.481L196.095 78.2303L279.538 67.6914" stroke="#453848" stroke-width="1.28385"/>
<path d="M63 173.191L153.917 64.9118L221.242 44.2182L285.115 37H377.758H555.859" stroke="#BDBDBD" stroke-width="0.855894" stroke-dasharray="1.71 1.71"/>
<path d="M279.535 67.6914L333.311 113.555L377.721 126.796L438.118 151.071L484.305 154.013L526.939 179.023L617.536 190.792L749.878 206.975L817.382 229.778" stroke="#453848" stroke-width="1.28385"/>
<path d="M279.633 117.563C281.221 117.563 282.509 116.275 282.509 114.686C282.509 113.097 281.221 111.809 279.633 111.809C278.045 111.809 276.757 113.097 276.757 114.686C276.757 116.275 278.045 117.563 279.633 117.563Z" fill="#453848" stroke="#453848" stroke-width="1.7118"/>
<path d="M279.633 71.527C281.221 71.527 282.509 70.2388 282.509 68.6497C282.509 67.0607 281.221 65.7725 279.633 65.7725C278.045 65.7725 276.757 67.0607 276.757 68.6497C276.757 70.2388 278.045 71.527 279.633 71.527Z" fill="#453848" stroke="#453848" stroke-width="1.7118"/>
<path d="M19.0829 255.621C18.9679 255.839 18.9103 256.104 18.8988 256.61H23.2813V257.45H17.9441V256.725C17.9441 256.07 18.0477 255.597 18.2661 255.229C18.5652 254.723 19.0484 254.366 20.3367 253.733C22.0045 252.916 22.5106 252.456 22.5106 251.684C22.5106 250.937 21.809 250.396 20.7852 250.396C19.5544 250.396 18.8068 251.086 18.7148 252.283L17.8291 252.214C17.9211 250.58 19.0714 249.556 20.7852 249.556C22.2691 249.556 23.4079 250.476 23.4079 251.684C23.4079 252.812 22.7982 253.48 21.0268 254.332C19.6695 254.987 19.2899 255.241 19.0829 255.621ZM27.3927 257.611C25.5178 257.611 24.2065 256.093 24.2065 253.583C24.2065 251.074 25.5063 249.556 27.3927 249.556C29.2792 249.556 30.579 251.074 30.579 253.583C30.579 256.093 29.2677 257.611 27.3927 257.611ZM27.3927 256.771C28.7616 256.771 29.6818 255.609 29.6818 253.583C29.6818 251.558 28.7616 250.396 27.3927 250.396C26.0239 250.396 25.1037 251.558 25.1037 253.583C25.1037 255.609 26.0239 256.771 27.3927 256.771ZM33.1876 257.45V250.752L31.3817 251.88V250.913L33.2911 249.717H34.0849V257.45H33.1876ZM38.503 249.556C40.3204 249.556 41.5166 250.752 41.5166 253.135C41.5166 256.265 40.6425 257.623 38.5835 257.623C37.2952 257.623 36.3289 256.91 35.9954 255.655L36.8696 255.425C37.1686 256.369 37.7783 256.761 38.5835 256.761C39.8603 256.761 40.4584 255.978 40.5505 253.964H40.5159C40.1019 254.504 39.4001 254.838 38.4569 254.838C36.72 254.838 35.6503 253.813 35.6503 252.168C35.6503 250.649 36.8581 249.556 38.503 249.556ZM38.503 253.998C39.6418 253.998 40.4124 253.285 40.4124 252.226C40.4124 251.144 39.6532 250.419 38.503 250.419C37.3412 250.419 36.5821 251.121 36.5821 252.168C36.5821 253.296 37.3297 253.998 38.503 253.998Z" fill="#828282"/>
<path d="M81.8837 255.621C81.7688 255.839 81.7109 256.104 81.6992 256.61H86.0822V257.45H80.7448V256.725C80.7448 256.07 80.8488 255.598 81.0668 255.229C81.3662 254.723 81.8493 254.367 83.1376 253.733C84.8057 252.916 85.3114 252.456 85.3114 251.685C85.3114 250.937 84.6094 250.396 83.5862 250.396C82.3551 250.396 81.6078 251.086 81.5155 252.283L80.6299 252.214C80.7221 250.58 81.872 249.556 83.5862 249.556C85.0699 249.556 86.2088 250.476 86.2088 251.685C86.2088 252.812 85.5991 253.48 83.8278 254.332C82.47 254.988 82.0909 255.241 81.8837 255.621ZM90.1934 257.612C88.319 257.612 87.0073 256.093 87.0073 253.584C87.0073 251.075 88.3072 249.556 90.1934 249.556C92.0796 249.556 93.3796 251.075 93.3796 253.584C93.3796 256.093 92.0687 257.612 90.1934 257.612ZM90.1934 256.772C91.5622 256.772 92.4822 255.609 92.4822 253.584C92.4822 251.558 91.5622 250.396 90.1934 250.396C88.8247 250.396 87.9047 251.558 87.9047 253.584C87.9047 255.609 88.8247 256.772 90.1934 256.772ZM95.4419 255.621C95.327 255.839 95.2692 256.104 95.2583 256.61H99.6404V257.45H94.303V256.725C94.303 256.07 94.407 255.598 94.625 255.229C94.9245 254.723 95.4076 254.367 96.6958 253.733C98.3639 252.916 98.8696 252.456 98.8696 251.685C98.8696 250.937 98.1677 250.396 97.1445 250.396C95.9133 250.396 95.166 251.086 95.0738 252.283L94.1881 252.214C94.2804 250.58 95.4302 249.556 97.1445 249.556C98.6281 249.556 99.767 250.476 99.767 251.685C99.767 252.812 99.1573 253.48 97.386 254.332C96.0282 254.988 95.6491 255.241 95.4419 255.621ZM103.752 257.612C101.877 257.612 100.565 256.093 100.565 253.584C100.565 251.075 101.865 249.556 103.752 249.556C105.638 249.556 106.938 251.075 106.938 253.584C106.938 256.093 105.627 257.612 103.752 257.612ZM103.752 256.772C105.12 256.772 106.04 255.609 106.04 253.584C106.04 251.558 105.12 250.396 103.752 250.396C102.383 250.396 101.463 251.558 101.463 253.584C101.463 255.609 102.383 256.772 103.752 256.772Z" fill="#828282"/>
<path d="M147.318 255.621C147.203 255.839 147.145 256.104 147.134 256.61H151.516V257.45H146.179V256.725C146.179 256.07 146.283 255.597 146.501 255.229C146.8 254.723 147.283 254.366 148.571 253.733C150.24 252.916 150.745 252.456 150.745 251.684C150.745 250.937 150.044 250.396 149.02 250.396C147.79 250.396 147.042 251.086 146.949 252.283L146.064 252.214C146.156 250.58 147.306 249.556 149.02 249.556C150.504 249.556 151.643 250.476 151.643 251.684C151.643 252.812 151.033 253.48 149.262 254.332C147.905 254.987 147.525 255.241 147.318 255.621ZM155.627 257.611C153.753 257.611 152.441 256.093 152.441 253.583C152.441 251.074 153.741 249.556 155.627 249.556C157.514 249.556 158.813 251.074 158.813 253.583C158.813 256.093 157.503 257.611 155.627 257.611ZM155.627 256.771C156.996 256.771 157.917 255.609 157.917 253.583C157.917 251.558 156.996 250.396 155.627 250.396C154.259 250.396 153.338 251.558 153.338 253.583C153.338 255.609 154.259 256.771 155.627 256.771ZM160.876 255.621C160.761 255.839 160.704 256.104 160.692 256.61H165.074V257.45H159.738V256.725C159.738 256.07 159.841 255.597 160.06 255.229C160.358 254.723 160.841 254.366 162.13 253.733C163.798 252.916 164.303 252.456 164.303 251.684C164.303 250.937 163.602 250.396 162.578 250.396C161.348 250.396 160.6 251.086 160.508 252.283L159.622 252.214C159.714 250.58 160.865 249.556 162.578 249.556C164.062 249.556 165.201 250.476 165.201 251.684C165.201 252.812 164.591 253.48 162.82 254.332C161.463 254.987 161.083 255.241 160.876 255.621ZM167.814 257.45V250.752L166.009 251.88V250.913L167.917 249.717H168.712V257.45H167.814Z" fill="#828282"/>
<path d="M210.461 255.413C210.357 255.55 210.323 255.689 210.323 255.942H214.268V257.449H208.449V256.311C208.449 255.608 208.61 255.079 208.943 254.688C209.322 254.239 209.932 253.859 210.898 253.445C212.267 252.857 212.692 252.513 212.692 251.937C212.692 251.385 212.233 251.039 211.485 251.039C210.588 251.039 210.047 251.534 209.967 252.455L208.333 252.328C208.449 250.59 209.644 249.543 211.485 249.543C213.175 249.543 214.338 250.556 214.338 251.949C214.338 253.087 213.613 253.87 212.06 254.549C210.806 255.09 210.611 255.205 210.461 255.413ZM218.238 257.622C216.247 257.622 214.855 256.092 214.855 253.582C214.855 251.073 216.236 249.543 218.238 249.543C220.227 249.543 221.608 251.073 221.608 253.582C221.608 256.092 220.216 257.622 218.238 257.622ZM218.238 256.126C219.307 256.126 219.963 255.286 219.963 253.582C219.963 251.879 219.307 251.039 218.238 251.039C217.156 251.039 216.501 251.879 216.501 253.582C216.501 255.286 217.156 256.126 218.238 256.126ZM224.12 255.413C224.017 255.55 223.983 255.689 223.983 255.942H227.928V257.449H222.107V256.311C222.107 255.608 222.268 255.079 222.602 254.688C222.982 254.239 223.591 253.859 224.558 253.445C225.927 252.857 226.352 252.513 226.352 251.937C226.352 251.385 225.892 251.039 225.144 251.039C224.247 251.039 223.707 251.534 223.626 252.455L221.992 252.328C222.107 250.59 223.304 249.543 225.144 249.543C226.835 249.543 227.997 250.556 227.997 251.949C227.997 253.087 227.272 253.87 225.72 254.549C224.466 255.09 224.27 255.205 224.12 255.413ZM230.928 255.413C230.824 255.55 230.789 255.689 230.789 255.942H234.735V257.449H228.915V256.311C228.915 255.608 229.076 255.079 229.41 254.688C229.789 254.239 230.399 253.859 231.365 253.445C232.734 252.857 233.16 252.513 233.16 251.937C233.16 251.385 232.699 251.039 231.952 251.039C231.054 251.039 230.514 251.534 230.433 252.455L228.8 252.328C228.915 250.59 230.111 249.543 231.952 249.543C233.643 249.543 234.804 250.556 234.804 251.949C234.804 253.087 234.08 253.87 232.526 254.549C231.273 255.09 231.077 255.205 230.928 255.413Z" fill="#828282"/>
<path d="M273.929 255.621C273.814 255.839 273.756 256.104 273.744 256.61H278.127V257.45H272.79V256.725C272.79 256.07 272.893 255.597 273.112 255.229C273.411 254.723 273.894 254.366 275.182 253.733C276.85 252.916 277.356 252.456 277.356 251.684C277.356 250.937 276.654 250.396 275.631 250.396C274.4 250.396 273.653 251.086 273.56 252.283L272.675 252.214C272.766 250.58 273.917 249.556 275.631 249.556C277.115 249.556 278.254 250.476 278.254 251.684C278.254 252.812 277.644 253.48 275.873 254.332C274.515 254.987 274.136 255.241 273.929 255.621ZM282.238 257.611C280.363 257.611 279.052 256.093 279.052 253.583C279.052 251.074 280.352 249.556 282.238 249.556C284.125 249.556 285.425 251.074 285.425 253.583C285.425 256.093 284.113 257.611 282.238 257.611ZM282.238 256.771C283.607 256.771 284.527 255.609 284.527 253.583C284.527 251.558 283.607 250.396 282.238 250.396C280.87 250.396 279.95 251.558 279.95 253.583C279.95 255.609 280.87 256.771 282.238 256.771ZM287.487 255.621C287.372 255.839 287.314 256.104 287.302 256.61H291.685V257.45H286.348V256.725C286.348 256.07 286.451 255.597 286.67 255.229C286.969 254.723 287.452 254.366 288.741 253.733C290.408 252.916 290.915 252.456 290.915 251.684C290.915 250.937 290.213 250.396 289.189 250.396C287.958 250.396 287.211 251.086 287.119 252.283L286.233 252.214C286.325 250.58 287.475 249.556 289.189 249.556C290.673 249.556 291.812 250.476 291.812 251.684C291.812 252.812 291.202 253.48 289.431 254.332C288.073 254.987 287.694 255.241 287.487 255.621ZM295.702 257.611C293.999 257.611 292.929 256.622 292.745 254.884L293.631 254.746C293.78 256.093 294.494 256.771 295.702 256.771C296.76 256.771 297.45 256.161 297.45 255.264C297.45 254.217 296.817 253.722 295.529 253.722H294.954V252.927H295.529C296.495 252.927 297.243 252.375 297.243 251.673C297.243 250.879 296.656 250.396 295.69 250.396C294.678 250.396 293.977 250.937 293.838 251.846L292.953 251.719C293.136 250.396 294.206 249.556 295.69 249.556C297.151 249.556 298.14 250.373 298.14 251.604C298.14 252.283 297.715 252.927 297.036 253.227V253.25C297.852 253.549 298.347 254.298 298.347 255.264C298.347 256.668 297.289 257.611 295.702 257.611Z" fill="#828282"/>
<path d="M338.082 255.621C337.968 255.839 337.91 256.104 337.899 256.61H342.281V257.45H336.944V256.725C336.944 256.07 337.048 255.597 337.266 255.229C337.565 254.723 338.048 254.366 339.336 253.733C341.004 252.916 341.51 252.456 341.51 251.684C341.51 250.937 340.809 250.396 339.785 250.396C338.554 250.396 337.807 251.086 337.714 252.283L336.829 252.214C336.921 250.58 338.071 249.556 339.785 249.556C341.269 249.556 342.408 250.476 342.408 251.684C342.408 252.812 341.798 253.48 340.027 254.332C338.67 254.987 338.29 255.241 338.082 255.621ZM346.392 257.611C344.518 257.611 343.206 256.093 343.206 253.583C343.206 251.074 344.506 249.556 346.392 249.556C348.279 249.556 349.578 251.074 349.578 253.583C349.578 256.093 348.267 257.611 346.392 257.611ZM346.392 256.771C347.761 256.771 348.682 255.609 348.682 253.583C348.682 251.558 347.761 250.396 346.392 250.396C345.023 250.396 344.103 251.558 344.103 253.583C344.103 255.609 345.023 256.771 346.392 256.771ZM351.641 255.621C351.526 255.839 351.469 256.104 351.457 256.61H355.839V257.45H350.502V256.725C350.502 256.07 350.606 255.597 350.825 255.229C351.123 254.723 351.606 254.366 352.895 253.733C354.563 252.916 355.068 252.456 355.068 251.684C355.068 250.937 354.367 250.396 353.343 250.396C352.113 250.396 351.365 251.086 351.272 252.283L350.387 252.214C350.479 250.58 351.63 249.556 353.343 249.556C354.827 249.556 355.966 250.476 355.966 251.684C355.966 252.812 355.356 253.48 353.585 254.332C352.228 254.987 351.848 255.241 351.641 255.621ZM360.399 257.45V255.909H356.362V255.08L359.939 249.717H361.296V255.068H362.343V255.909H361.296V257.45H360.399ZM357.271 255.068H360.399V250.43H360.376L357.271 255.068Z" fill="#828282"/>
</g>
<path d="M488.838 1.3584H6.00299C3.409 1.3584 1.30615 4.58316 1.30615 8.56111V258.255C1.30615 262.233 3.409 265.458 6.00299 265.458H488.838C491.432 265.458 493.535 262.233 493.535 258.255V8.56111C493.535 4.58316 491.432 1.3584 488.838 1.3584Z" stroke="#E0E0E0" stroke-width="0.855894"/>
</svg>
