<svg width="400" height="265" viewBox="0 0 400 265" fill="none" xmlns="http://www.w3.org/2000/svg">
<path d="M488.521 0.358398H5.37259C2.60387 0.358398 0.359375 3.79796 0.359375 8.04089V257.722C0.359375 261.965 2.60387 265.404 5.37259 265.404H488.521C491.29 265.404 493.534 261.965 493.534 257.722V8.04089C493.534 3.79796 491.29 0.358398 488.521 0.358398Z" fill="white"/>
<path d="M3.07129 0.876561L754.579 0.854492" stroke="#F9F9F9" stroke-width="0.855894" stroke-linecap="round"/>
<path d="M3.07129 34.7152L754.579 34.6934" stroke="#F9F9F9" stroke-width="0.855894" stroke-linecap="round"/>
<path d="M3.07129 68.555L754.579 68.5332" stroke="#F9F9F9" stroke-width="0.855894" stroke-linecap="round"/>
<path d="M3.07129 102.394L754.579 102.371" stroke="#F9F9F9" stroke-width="0.855894" stroke-linecap="round"/>
<path d="M3.07129 136.234L754.579 136.211" stroke="#F9F9F9" stroke-width="0.855894" stroke-linecap="round"/>
<path d="M3.07129 170.072L754.579 170.049" stroke="#F9F9F9" stroke-width="0.855894" stroke-linecap="round"/>
<path d="M3.07129 203.91L754.579 203.889" stroke="#F9F9F9" stroke-width="0.855894" stroke-linecap="round"/>
<path d="M3.07129 237.75L754.579 237.729" stroke="#F9F9F9" stroke-width="0.855894" stroke-linecap="round"/>
<path d="M0.196289 237.75V-0.104492" stroke="#F2F2F2" stroke-width="0.855894" stroke-linecap="round"/>
<path d="M63.0625 237.75V-0.104492" stroke="#F2F2F2" stroke-width="0.855894" stroke-linecap="round"/>
<path d="M125.927 237.75V-0.104492" stroke="#F2F2F2" stroke-width="0.855894" stroke-linecap="round"/>
<path d="M188.792 237.75V-0.104492" stroke="#F2F2F2" stroke-width="0.855894" stroke-linecap="round"/>
<path d="M251.656 237.75V-0.104492" stroke="#F2F2F2" stroke-width="0.855894" stroke-linecap="round"/>
<path d="M314.524 237.75V-0.104492" stroke="#F2F2F2" stroke-width="0.855894" stroke-linecap="round"/>
<path d="M377.388 237.75V-0.104492" stroke="#F2F2F2" stroke-width="0.855894" stroke-linecap="round"/>
<path d="M12.4607 30.9462V25.3642L10.9558 26.304V25.4985L12.5471 24.5007H13.2084V30.9462H12.4607ZM15.8307 30.9462V25.3642L14.3257 26.304V25.4985L15.917 24.5007H16.5784V30.9462H15.8307ZM20.6339 31.0805C19.0715 31.0805 17.9787 29.8142 17.9787 27.7231C17.9787 25.6327 19.0619 24.3664 20.6339 24.3664C22.206 24.3664 23.2891 25.6327 23.2891 27.7231C23.2891 29.8142 22.1964 31.0805 20.6339 31.0805ZM20.6339 30.3798C21.7746 30.3798 22.5414 29.4114 22.5414 27.7231C22.5414 26.0355 21.7746 25.0671 20.6339 25.0671C19.4932 25.0671 18.7264 26.0355 18.7264 27.7231C18.7264 29.4114 19.4932 30.3798 20.6339 30.3798ZM24.3489 30.9462V23.9443H25.0966V28.1258H25.1157L27.2341 25.8626H28.2885L26.4001 27.8288L28.4132 30.9462H27.5313L25.8826 28.3658H25.8634L25.0966 29.1815V30.9462H24.3489Z" fill="#828282"/>
<path d="M11.2027 64.5929V59.0117L9.69775 59.9516V59.146L11.289 58.1482H11.9504V64.5929H11.2027ZM16.0059 64.7272C14.4435 64.7272 13.3507 63.4618 13.3507 61.3706C13.3507 59.2802 14.4339 58.014 16.0059 58.014C17.578 58.014 18.6611 59.2802 18.6611 61.3706C18.6611 63.4618 17.5684 64.7272 16.0059 64.7272ZM16.0059 64.0273C17.1466 64.0273 17.9134 63.059 17.9134 61.3706C17.9134 59.683 17.1466 58.7138 16.0059 58.7138C14.8652 58.7138 14.0984 59.683 14.0984 61.3706C14.0984 63.059 14.8652 64.0273 16.0059 64.0273ZM22.1748 64.7272C20.6123 64.7272 19.5196 63.4618 19.5196 61.3706C19.5196 59.2802 20.6028 58.014 22.1748 58.014C23.7468 58.014 24.83 59.2802 24.83 61.3706C24.83 63.4618 23.7372 64.7272 22.1748 64.7272ZM22.1748 64.0273C23.3154 64.0273 24.0823 63.059 24.0823 61.3706C24.0823 59.683 23.3154 58.7138 22.1748 58.7138C21.0341 58.7138 20.2672 59.683 20.2672 61.3706C20.2672 63.059 21.0341 64.0273 22.1748 64.0273ZM25.8897 64.5929V57.5919H26.6374V61.7734H26.6566L28.7749 59.5102H29.8293L27.941 61.4763L29.954 64.5929H29.0721L27.4234 62.0134H27.4042L26.6374 62.8282V64.5929H25.8897Z" fill="#828282"/>
<path d="M14.1702 91.6633C15.6847 91.6633 16.6816 92.6602 16.6816 94.6457C16.6816 97.2546 15.9531 98.3858 14.2373 98.3858C13.1637 98.3858 12.3585 97.7917 12.0806 96.7461L12.809 96.5539C13.0583 97.341 13.5663 97.6666 14.2373 97.6666C15.3013 97.6666 15.7997 97.0146 15.8765 95.3363H15.8477C15.5026 95.7869 14.9178 96.0655 14.1318 96.0655C12.6844 96.0655 11.793 95.2113 11.793 93.8401C11.793 92.5738 12.7995 91.6633 14.1702 91.6633ZM14.1702 95.3648C15.1192 95.3648 15.7614 94.7707 15.7614 93.8879C15.7614 92.9866 15.1288 92.3825 14.1702 92.3825C13.202 92.3825 12.5694 92.9674 12.5694 93.8401C12.5694 94.7799 13.1925 95.3648 14.1702 95.3648ZM20.198 98.3765C18.6356 98.3765 17.5428 97.1103 17.5428 95.0199C17.5428 92.9287 18.626 91.6633 20.198 91.6633C21.7701 91.6633 22.8532 92.9287 22.8532 95.0199C22.8532 97.1103 21.7604 98.3765 20.198 98.3765ZM20.198 97.6767C21.3387 97.6767 22.1055 96.7075 22.1055 95.0199C22.1055 93.3315 21.3387 92.3632 20.198 92.3632C19.0573 92.3632 18.2905 93.3315 18.2905 95.0199C18.2905 96.7075 19.0573 97.6767 20.198 97.6767ZM23.9129 98.2423V91.2412H24.6606V95.4227H24.6798L26.7982 93.1595H27.8526L25.9643 95.1257L27.9772 98.2423H27.0953L25.4466 95.6627H25.4274L24.6606 96.4775V98.2423H23.9129Z" fill="#828282"/>
<path d="M14.1709 132.034C12.6755 132.034 11.6978 131.258 11.6978 130.107C11.6978 129.292 12.1771 128.678 12.9822 128.381V128.361C12.3688 128.054 12.0716 127.613 12.0716 127.009C12.0716 126.031 12.9535 125.311 14.1709 125.311C15.3882 125.311 16.2701 126.031 16.2701 127.009C16.2701 127.603 15.973 128.045 15.369 128.361V128.381C16.155 128.678 16.6439 129.292 16.6439 130.107C16.6439 131.258 15.6662 132.034 14.1709 132.034ZM14.1709 128.073C14.9857 128.073 15.532 127.671 15.532 127.047C15.532 126.414 14.976 125.982 14.1709 125.982C13.3561 125.982 12.8192 126.414 12.8192 127.047C12.8192 127.671 13.3561 128.073 14.1709 128.073ZM14.1709 131.315C15.2061 131.315 15.8675 130.836 15.8675 130.059C15.8675 129.292 15.2061 128.773 14.1709 128.773C13.1356 128.773 12.4742 129.292 12.4742 130.059C12.4742 130.836 13.126 131.315 14.1709 131.315ZM19.8804 132.025C18.3179 132.025 17.2252 130.759 17.2252 128.668C17.2252 126.577 18.3084 125.311 19.8804 125.311C21.4524 125.311 22.5356 126.577 22.5356 128.668C22.5356 130.759 21.4429 132.025 19.8804 132.025ZM19.8804 131.325C21.0211 131.325 21.7879 130.356 21.7879 128.668C21.7879 126.98 21.0211 126.012 19.8804 126.012C18.7397 126.012 17.9729 126.98 17.9729 128.668C17.9729 130.356 18.7397 131.325 19.8804 131.325ZM23.5953 131.891V124.89H24.343V129.071H24.3622L26.4805 126.807H27.535L25.6466 128.773L27.6596 131.891H26.7777L25.129 129.31H25.1099L24.343 130.126V131.891H23.5953Z" fill="#828282"/>
<path d="M12.8277 165.54L15.5595 159.804V159.794H12.0225V159.094H16.4031V159.757L13.6616 165.54H12.8277ZM19.2057 165.674C17.6433 165.674 16.5505 164.408 16.5505 162.317C16.5505 160.226 17.6337 158.96 19.2057 158.96C20.7778 158.96 21.8609 160.226 21.8609 162.317C21.8609 164.408 20.7682 165.674 19.2057 165.674ZM19.2057 164.974C20.3464 164.974 21.1132 164.005 21.1132 162.317C21.1132 160.629 20.3464 159.66 19.2057 159.66C18.065 159.66 17.2982 160.629 17.2982 162.317C17.2982 164.005 18.065 164.974 19.2057 164.974ZM22.9207 165.54V158.538H23.6683V162.72H23.6875L25.8059 160.456H26.8603L24.972 162.423L26.985 165.54H26.1031L24.4543 162.96H24.4352L23.6683 163.775V165.54H22.9207Z" fill="#828282"/>
<path d="M14.2984 194.899C15.6116 194.899 16.5894 195.83 16.5894 197.105C16.5894 198.458 15.535 199.321 14.2122 199.321C12.4676 199.321 11.4707 198.065 11.4707 196.06C11.4707 194.037 12.6497 192.608 14.241 192.608C15.372 192.608 16.206 193.202 16.484 194.324L15.7555 194.496C15.5158 193.643 14.9982 193.307 14.2601 193.307C13.1578 193.307 12.3238 194.314 12.2663 195.888H12.295C12.621 195.302 13.3494 194.899 14.2984 194.899ZM14.2122 198.621C15.0749 198.621 15.8417 198.074 15.8417 197.105C15.8417 196.166 15.1515 195.561 14.2026 195.561C13.1865 195.561 12.506 196.223 12.506 197.105C12.506 197.969 13.1674 198.621 14.2122 198.621ZM19.9203 199.321C18.3578 199.321 17.2651 198.055 17.2651 195.964C17.2651 193.873 18.3483 192.608 19.9203 192.608C21.4923 192.608 22.5755 193.873 22.5755 195.964C22.5755 198.055 21.4828 199.321 19.9203 199.321ZM19.9203 198.621C21.061 198.621 21.8278 197.653 21.8278 195.964C21.8278 194.276 21.061 193.307 19.9203 193.307C18.7796 193.307 18.0128 194.276 18.0128 195.964C18.0128 197.653 18.7796 198.621 19.9203 198.621ZM23.6352 199.187V192.185H24.3829V196.367H24.4021L26.5204 194.104H27.5749L25.6865 196.07L27.6995 199.187H26.8177L25.1689 196.607H25.1498L24.3829 197.422V199.187H23.6352Z" fill="#828282"/>
<path d="M14.2956 232.969C12.9633 232.969 12.1005 232.288 11.8418 231.127L12.5607 230.945C12.762 231.818 13.3083 232.269 14.2956 232.269C15.2926 232.269 15.9732 231.636 15.9732 230.677C15.9732 229.785 15.3213 229.123 14.2956 229.123C13.5959 229.123 13.0879 229.401 12.6661 229.814L11.9855 229.641L12.6374 226.389H16.1457V227.09H13.2125L12.8387 228.912L12.8579 228.922C13.2604 228.624 13.7684 228.461 14.4107 228.461C15.7527 228.461 16.7208 229.401 16.7208 230.677C16.7208 232.049 15.7239 232.969 14.2956 232.969ZM20.1521 232.969C18.5896 232.969 17.4969 231.703 17.4969 229.613C17.4969 227.521 18.5801 226.255 20.1521 226.255C21.7241 226.255 22.8073 227.521 22.8073 229.613C22.8073 231.703 21.7145 232.969 20.1521 232.969ZM20.1521 232.269C21.2927 232.269 22.0596 231.3 22.0596 229.613C22.0596 227.924 21.2927 226.956 20.1521 226.956C19.0114 226.956 18.2445 227.924 18.2445 229.613C18.2445 231.3 19.0114 232.269 20.1521 232.269ZM23.867 232.835V225.834H24.6147V230.015H24.6339L26.7522 227.751H27.8066L25.9183 229.717L27.9313 232.835H27.0494L25.4007 230.255H25.3815L24.6147 231.07V232.835H23.867Z" fill="#828282"/>
<path d="M65.7959 169.774L132.338 124.832L197.984 112.729H277.876L331.938 135.592L378.955 142.317L438.391 165.853H485.409L527.102 186.027L616.701 193.424L671.702 200.821L749.768 212.925L815.414 229.738" stroke="#453848" stroke-width="1.28385" stroke-linecap="round" stroke-dasharray="2.57 2.57"/>
<path d="M64.918 171.232L130.066 112.481L196.095 77.2303L279.538 66.6914" stroke="#453848" stroke-width="1.28385"/>
<path d="M63 172.191L153.917 63.9118L221.242 43.2182L285.115 36H377.758H555.859" stroke="#BDBDBD" stroke-width="0.855894" stroke-dasharray="1.71 1.71"/>
<path d="M279.535 66.6914L333.311 112.555L377.721 125.796L438.118 150.071L484.305 153.013L526.939 178.023L617.536 189.792L749.878 205.975L817.382 228.778" stroke="#453848" stroke-width="1.28385"/>
<path d="M279.633 116.563C281.221 116.563 282.509 115.275 282.509 113.686C282.509 112.097 281.221 110.809 279.633 110.809C278.045 110.809 276.757 112.097 276.757 113.686C276.757 115.275 278.045 116.563 279.633 116.563Z" fill="#453848" stroke="#453848" stroke-width="1.7118"/>
<path d="M279.633 70.527C281.221 70.527 282.509 69.2388 282.509 67.6497C282.509 66.0607 281.221 64.7725 279.633 64.7725C278.045 64.7725 276.757 66.0607 276.757 67.6497C276.757 69.2388 278.045 70.527 279.633 70.527Z" fill="#453848" stroke="#453848" stroke-width="1.7118"/>
<path d="M19.0829 254.621C18.9679 254.839 18.9103 255.104 18.8988 255.61H23.2813V256.45H17.9441V255.725C17.9441 255.07 18.0477 254.597 18.2661 254.229C18.5652 253.723 19.0484 253.366 20.3367 252.733C22.0045 251.916 22.5106 251.456 22.5106 250.684C22.5106 249.937 21.809 249.396 20.7852 249.396C19.5544 249.396 18.8068 250.086 18.7148 251.283L17.8291 251.214C17.9211 249.58 19.0714 248.556 20.7852 248.556C22.2691 248.556 23.4079 249.476 23.4079 250.684C23.4079 251.812 22.7982 252.48 21.0268 253.332C19.6695 253.987 19.2899 254.241 19.0829 254.621ZM27.3927 256.611C25.5178 256.611 24.2065 255.093 24.2065 252.583C24.2065 250.074 25.5063 248.556 27.3927 248.556C29.2792 248.556 30.579 250.074 30.579 252.583C30.579 255.093 29.2677 256.611 27.3927 256.611ZM27.3927 255.771C28.7616 255.771 29.6818 254.609 29.6818 252.583C29.6818 250.558 28.7616 249.396 27.3927 249.396C26.0239 249.396 25.1037 250.558 25.1037 252.583C25.1037 254.609 26.0239 255.771 27.3927 255.771ZM33.1876 256.45V249.752L31.3817 250.88V249.913L33.2911 248.717H34.0849V256.45H33.1876ZM38.503 248.556C40.3204 248.556 41.5166 249.752 41.5166 252.135C41.5166 255.265 40.6425 256.623 38.5835 256.623C37.2952 256.623 36.3289 255.91 35.9954 254.655L36.8696 254.425C37.1686 255.369 37.7783 255.761 38.5835 255.761C39.8603 255.761 40.4584 254.978 40.5505 252.964H40.5159C40.1019 253.504 39.4001 253.838 38.4569 253.838C36.72 253.838 35.6503 252.813 35.6503 251.168C35.6503 249.649 36.8581 248.556 38.503 248.556ZM38.503 252.998C39.6418 252.998 40.4124 252.285 40.4124 251.226C40.4124 250.144 39.6532 249.419 38.503 249.419C37.3412 249.419 36.5821 250.121 36.5821 251.168C36.5821 252.296 37.3297 252.998 38.503 252.998Z" fill="#828282"/>
<path d="M81.8837 254.621C81.7688 254.839 81.7109 255.104 81.6992 255.61H86.0822V256.45H80.7448V255.725C80.7448 255.07 80.8488 254.598 81.0668 254.229C81.3662 253.723 81.8493 253.367 83.1376 252.733C84.8057 251.916 85.3114 251.456 85.3114 250.685C85.3114 249.937 84.6094 249.396 83.5862 249.396C82.3551 249.396 81.6078 250.086 81.5155 251.283L80.6299 251.214C80.7221 249.58 81.872 248.556 83.5862 248.556C85.0699 248.556 86.2088 249.476 86.2088 250.685C86.2088 251.812 85.5991 252.48 83.8278 253.332C82.47 253.988 82.0909 254.241 81.8837 254.621ZM90.1934 256.612C88.319 256.612 87.0073 255.093 87.0073 252.584C87.0073 250.075 88.3072 248.556 90.1934 248.556C92.0796 248.556 93.3796 250.075 93.3796 252.584C93.3796 255.093 92.0687 256.612 90.1934 256.612ZM90.1934 255.772C91.5622 255.772 92.4822 254.609 92.4822 252.584C92.4822 250.558 91.5622 249.396 90.1934 249.396C88.8247 249.396 87.9047 250.558 87.9047 252.584C87.9047 254.609 88.8247 255.772 90.1934 255.772ZM95.4419 254.621C95.327 254.839 95.2692 255.104 95.2583 255.61H99.6404V256.45H94.303V255.725C94.303 255.07 94.407 254.598 94.625 254.229C94.9245 253.723 95.4076 253.367 96.6958 252.733C98.3639 251.916 98.8696 251.456 98.8696 250.685C98.8696 249.937 98.1677 249.396 97.1445 249.396C95.9133 249.396 95.166 250.086 95.0738 251.283L94.1881 251.214C94.2804 249.58 95.4302 248.556 97.1445 248.556C98.6281 248.556 99.767 249.476 99.767 250.685C99.767 251.812 99.1573 252.48 97.386 253.332C96.0282 253.988 95.6491 254.241 95.4419 254.621ZM103.752 256.612C101.877 256.612 100.565 255.093 100.565 252.584C100.565 250.075 101.865 248.556 103.752 248.556C105.638 248.556 106.938 250.075 106.938 252.584C106.938 255.093 105.627 256.612 103.752 256.612ZM103.752 255.772C105.12 255.772 106.04 254.609 106.04 252.584C106.04 250.558 105.12 249.396 103.752 249.396C102.383 249.396 101.463 250.558 101.463 252.584C101.463 254.609 102.383 255.772 103.752 255.772Z" fill="#828282"/>
<path d="M147.318 254.621C147.203 254.839 147.145 255.104 147.134 255.61H151.516V256.45H146.179V255.725C146.179 255.07 146.283 254.597 146.501 254.229C146.8 253.723 147.283 253.366 148.571 252.733C150.24 251.916 150.745 251.456 150.745 250.684C150.745 249.937 150.044 249.396 149.02 249.396C147.79 249.396 147.042 250.086 146.949 251.283L146.064 251.214C146.156 249.58 147.306 248.556 149.02 248.556C150.504 248.556 151.643 249.476 151.643 250.684C151.643 251.812 151.033 252.48 149.262 253.332C147.905 253.987 147.525 254.241 147.318 254.621ZM155.627 256.611C153.753 256.611 152.441 255.093 152.441 252.583C152.441 250.074 153.741 248.556 155.627 248.556C157.514 248.556 158.813 250.074 158.813 252.583C158.813 255.093 157.503 256.611 155.627 256.611ZM155.627 255.771C156.996 255.771 157.917 254.609 157.917 252.583C157.917 250.558 156.996 249.396 155.627 249.396C154.259 249.396 153.338 250.558 153.338 252.583C153.338 254.609 154.259 255.771 155.627 255.771ZM160.876 254.621C160.761 254.839 160.704 255.104 160.692 255.61H165.074V256.45H159.738V255.725C159.738 255.07 159.841 254.597 160.06 254.229C160.358 253.723 160.841 253.366 162.13 252.733C163.798 251.916 164.303 251.456 164.303 250.684C164.303 249.937 163.602 249.396 162.578 249.396C161.348 249.396 160.6 250.086 160.508 251.283L159.622 251.214C159.714 249.58 160.865 248.556 162.578 248.556C164.062 248.556 165.201 249.476 165.201 250.684C165.201 251.812 164.591 252.48 162.82 253.332C161.463 253.987 161.083 254.241 160.876 254.621ZM167.814 256.45V249.752L166.009 250.88V249.913L167.917 248.717H168.712V256.45H167.814Z" fill="#828282"/>
<path d="M210.461 254.413C210.357 254.55 210.323 254.689 210.323 254.942H214.268V256.449H208.449V255.311C208.449 254.608 208.61 254.079 208.943 253.688C209.322 253.239 209.932 252.859 210.898 252.445C212.267 251.857 212.692 251.513 212.692 250.937C212.692 250.385 212.233 250.039 211.485 250.039C210.588 250.039 210.047 250.534 209.967 251.455L208.333 251.328C208.449 249.59 209.644 248.543 211.485 248.543C213.175 248.543 214.338 249.556 214.338 250.949C214.338 252.087 213.613 252.87 212.06 253.549C210.806 254.09 210.611 254.205 210.461 254.413ZM218.238 256.622C216.247 256.622 214.855 255.092 214.855 252.582C214.855 250.073 216.236 248.543 218.238 248.543C220.227 248.543 221.608 250.073 221.608 252.582C221.608 255.092 220.216 256.622 218.238 256.622ZM218.238 255.126C219.307 255.126 219.963 254.286 219.963 252.582C219.963 250.879 219.307 250.039 218.238 250.039C217.156 250.039 216.501 250.879 216.501 252.582C216.501 254.286 217.156 255.126 218.238 255.126ZM224.12 254.413C224.017 254.55 223.983 254.689 223.983 254.942H227.928V256.449H222.107V255.311C222.107 254.608 222.268 254.079 222.602 253.688C222.982 253.239 223.591 252.859 224.558 252.445C225.927 251.857 226.352 251.513 226.352 250.937C226.352 250.385 225.892 250.039 225.144 250.039C224.247 250.039 223.707 250.534 223.626 251.455L221.992 251.328C222.107 249.59 223.304 248.543 225.144 248.543C226.835 248.543 227.997 249.556 227.997 250.949C227.997 252.087 227.272 252.87 225.72 253.549C224.466 254.09 224.27 254.205 224.12 254.413ZM230.928 254.413C230.824 254.55 230.789 254.689 230.789 254.942H234.735V256.449H228.915V255.311C228.915 254.608 229.076 254.079 229.41 253.688C229.789 253.239 230.399 252.859 231.365 252.445C232.734 251.857 233.16 251.513 233.16 250.937C233.16 250.385 232.699 250.039 231.952 250.039C231.054 250.039 230.514 250.534 230.433 251.455L228.8 251.328C228.915 249.59 230.111 248.543 231.952 248.543C233.643 248.543 234.804 249.556 234.804 250.949C234.804 252.087 234.08 252.87 232.526 253.549C231.273 254.09 231.077 254.205 230.928 254.413Z" fill="#828282"/>
<path d="M273.929 254.621C273.814 254.839 273.756 255.104 273.744 255.61H278.127V256.45H272.79V255.725C272.79 255.07 272.893 254.597 273.112 254.229C273.411 253.723 273.894 253.366 275.182 252.733C276.85 251.916 277.356 251.456 277.356 250.684C277.356 249.937 276.654 249.396 275.631 249.396C274.4 249.396 273.653 250.086 273.56 251.283L272.675 251.214C272.766 249.58 273.917 248.556 275.631 248.556C277.115 248.556 278.254 249.476 278.254 250.684C278.254 251.812 277.644 252.48 275.873 253.332C274.515 253.987 274.136 254.241 273.929 254.621ZM282.238 256.611C280.363 256.611 279.052 255.093 279.052 252.583C279.052 250.074 280.352 248.556 282.238 248.556C284.125 248.556 285.425 250.074 285.425 252.583C285.425 255.093 284.113 256.611 282.238 256.611ZM282.238 255.771C283.607 255.771 284.527 254.609 284.527 252.583C284.527 250.558 283.607 249.396 282.238 249.396C280.87 249.396 279.95 250.558 279.95 252.583C279.95 254.609 280.87 255.771 282.238 255.771ZM287.487 254.621C287.372 254.839 287.314 255.104 287.302 255.61H291.685V256.45H286.348V255.725C286.348 255.07 286.451 254.597 286.67 254.229C286.969 253.723 287.452 253.366 288.741 252.733C290.408 251.916 290.915 251.456 290.915 250.684C290.915 249.937 290.213 249.396 289.189 249.396C287.958 249.396 287.211 250.086 287.119 251.283L286.233 251.214C286.325 249.58 287.475 248.556 289.189 248.556C290.673 248.556 291.812 249.476 291.812 250.684C291.812 251.812 291.202 252.48 289.431 253.332C288.073 253.987 287.694 254.241 287.487 254.621ZM295.702 256.611C293.999 256.611 292.929 255.622 292.745 253.884L293.631 253.746C293.78 255.093 294.494 255.771 295.702 255.771C296.76 255.771 297.45 255.161 297.45 254.264C297.45 253.217 296.817 252.722 295.529 252.722H294.954V251.927H295.529C296.495 251.927 297.243 251.375 297.243 250.673C297.243 249.879 296.656 249.396 295.69 249.396C294.678 249.396 293.977 249.937 293.838 250.846L292.953 250.719C293.136 249.396 294.206 248.556 295.69 248.556C297.151 248.556 298.14 249.373 298.14 250.604C298.14 251.283 297.715 251.927 297.036 252.227V252.25C297.852 252.549 298.347 253.298 298.347 254.264C298.347 255.668 297.289 256.611 295.702 256.611Z" fill="#828282"/>
<path d="M338.082 254.621C337.968 254.839 337.91 255.104 337.899 255.61H342.281V256.45H336.944V255.725C336.944 255.07 337.048 254.597 337.266 254.229C337.565 253.723 338.048 253.366 339.336 252.733C341.004 251.916 341.51 251.456 341.51 250.684C341.51 249.937 340.809 249.396 339.785 249.396C338.554 249.396 337.807 250.086 337.714 251.283L336.829 251.214C336.921 249.58 338.071 248.556 339.785 248.556C341.269 248.556 342.408 249.476 342.408 250.684C342.408 251.812 341.798 252.48 340.027 253.332C338.67 253.987 338.29 254.241 338.082 254.621ZM346.392 256.611C344.518 256.611 343.206 255.093 343.206 252.583C343.206 250.074 344.506 248.556 346.392 248.556C348.279 248.556 349.578 250.074 349.578 252.583C349.578 255.093 348.267 256.611 346.392 256.611ZM346.392 255.771C347.761 255.771 348.682 254.609 348.682 252.583C348.682 250.558 347.761 249.396 346.392 249.396C345.023 249.396 344.103 250.558 344.103 252.583C344.103 254.609 345.023 255.771 346.392 255.771ZM351.641 254.621C351.526 254.839 351.469 255.104 351.457 255.61H355.839V256.45H350.502V255.725C350.502 255.07 350.606 254.597 350.825 254.229C351.123 253.723 351.606 253.366 352.895 252.733C354.563 251.916 355.068 251.456 355.068 250.684C355.068 249.937 354.367 249.396 353.343 249.396C352.113 249.396 351.365 250.086 351.272 251.283L350.387 251.214C350.479 249.58 351.63 248.556 353.343 248.556C354.827 248.556 355.966 249.476 355.966 250.684C355.966 251.812 355.356 252.48 353.585 253.332C352.228 253.987 351.848 254.241 351.641 254.621ZM360.399 256.45V254.909H356.362V254.08L359.939 248.717H361.296V254.068H362.343V254.909H361.296V256.45H360.399ZM357.271 254.068H360.399V249.43H360.376L357.271 254.068Z" fill="#828282"/>
</svg>
