<svg width="36" height="36" viewBox="0 0 36 36" fill="none" xmlns="http://www.w3.org/2000/svg">
<path d="M17.8308 11.8201C19.7895 11.8201 20.0215 11.8287 20.7918 11.8631C21.5077 11.8946 21.8943 12.0148 22.152 12.1151C22.4928 12.2468 22.7391 12.4072 22.9939 12.662C23.2517 12.9197 23.4092 13.1632 23.5408 13.5039C23.6411 13.7616 23.7613 14.1511 23.7928 14.8641C23.8273 15.6373 23.8358 15.8693 23.8358 17.8251C23.8358 19.7838 23.8273 20.0157 23.7928 20.7861C23.7613 21.502 23.6411 21.8886 23.5408 22.1462C23.4092 22.4871 23.2487 22.7333 22.9939 22.9882C22.7362 23.2459 22.4928 23.4034 22.152 23.5352C21.8943 23.6353 21.5048 23.7556 20.7918 23.7871C20.0186 23.8215 19.7867 23.8301 17.8308 23.8301C15.8721 23.8301 15.6402 23.8215 14.8699 23.7871C14.154 23.7556 13.7674 23.6353 13.5096 23.5352C13.1689 23.4034 12.9226 23.243 12.6677 22.9882C12.41 22.7304 12.2525 22.4871 12.1208 22.1462C12.0206 21.8886 11.9003 21.4991 11.8688 20.7861C11.8344 20.0129 11.8259 19.7809 11.8259 17.8251C11.8259 15.8664 11.8344 15.6344 11.8688 14.8641C11.9003 14.1482 12.0206 13.7616 12.1208 13.5039C12.2525 13.1632 12.4129 12.9169 12.6677 12.662C12.9255 12.4043 13.1689 12.2468 13.5096 12.1151C13.7674 12.0148 14.1568 11.8946 14.8699 11.8631C15.6402 11.8287 15.8721 11.8201 17.8308 11.8201ZM17.8308 10.5C15.8406 10.5 15.5915 10.5086 14.8097 10.5429C14.0308 10.5773 13.4953 10.7033 13.0314 10.8837C12.5475 11.0727 12.138 11.3219 11.7314 11.7314C11.3219 12.138 11.0727 12.5475 10.8837 13.0286C10.7033 13.4953 10.5773 14.028 10.5429 14.8069C10.5086 15.5915 10.5 15.8406 10.5 17.8308C10.5 19.821 10.5086 20.0702 10.5429 20.8519C10.5773 21.6308 10.7033 22.1663 10.8837 22.6302C11.0727 23.1142 11.3219 23.5237 11.7314 23.9303C12.138 24.3369 12.5475 24.5889 13.0286 24.7751C13.4953 24.9555 14.028 25.0815 14.8069 25.1158C15.5886 25.1502 15.8378 25.1587 17.828 25.1587C19.8182 25.1587 20.0673 25.1502 20.8491 25.1158C21.628 25.0815 22.1635 24.9555 22.6273 24.7751C23.1084 24.5889 23.5179 24.3369 23.9246 23.9303C24.3313 23.5237 24.5832 23.1142 24.7693 22.6331C24.9497 22.1663 25.0758 21.6337 25.1101 20.8548C25.1445 20.073 25.1531 19.8239 25.1531 17.8337C25.1531 15.8435 25.1445 15.5943 25.1101 14.8126C25.0758 14.0337 24.9497 13.4982 24.7693 13.0343C24.5889 12.5475 24.3398 12.138 23.9303 11.7314C23.5237 11.3247 23.1142 11.0727 22.6331 10.8866C22.1663 10.7062 21.6337 10.5802 20.8548 10.5458C20.0702 10.5086 19.821 10.5 17.8308 10.5Z" fill="#3C4A41"/>
<path d="M17.8308 14.0652C15.7519 14.0652 14.0652 15.7519 14.0652 17.8308C14.0652 19.9098 15.7519 21.5965 17.8308 21.5965C19.9098 21.5965 21.5965 19.9098 21.5965 17.8308C21.5965 15.7519 19.9098 14.0652 17.8308 14.0652ZM17.8308 20.2735C16.4821 20.2735 15.3882 19.1796 15.3882 17.8308C15.3882 16.4821 16.4821 15.3882 17.8308 15.3882C19.1796 15.3882 20.2735 16.4821 20.2735 17.8308C20.2735 19.1796 19.1796 20.2735 17.8308 20.2735Z" fill="#3C4A41"/>
<path d="M22.6245 13.9162C22.6245 14.4031 22.2292 14.7954 21.7453 14.7954C21.2585 14.7954 20.8662 14.4002 20.8662 13.9162C20.8662 13.4294 21.2614 13.0371 21.7453 13.0371C22.2292 13.0371 22.6245 13.4323 22.6245 13.9162Z" fill="#3C4A41"/>
</svg>
