<svg width="36" height="36" viewBox="0 0 36 36" fill="none" xmlns="http://www.w3.org/2000/svg">
<path d="M25.4987 24.6418H22.5655V20.0484C22.5655 18.953 22.5459 17.5429 21.04 17.5429C19.5123 17.5429 19.2785 18.7363 19.2785 19.9686V24.6415H16.3453V15.1955H19.1612V16.4863H19.2007C19.774 15.5061 20.8439 14.9184 21.9789 14.9606C24.9518 14.9606 25.4999 16.916 25.4999 19.4599L25.4987 24.6418ZM13.0358 13.9042C12.102 13.9042 11.3333 13.136 11.3333 12.2022C11.3333 11.2684 12.1016 10.5 13.0354 10.5C13.9691 10.5 14.7374 11.2682 14.7376 12.2018C14.7376 13.1354 13.9694 13.9042 13.0358 13.9042ZM14.5023 24.6418H11.5661V15.1955H14.5023V24.6418Z" fill="#3C4A41"/>
</svg>
