<svg width="36" height="36" viewBox="0 0 36 36" fill="none" xmlns="http://www.w3.org/2000/svg">
<path d="M15.9443 24.0803C21.477 24.0803 24.5032 19.4965 24.5032 15.5215C24.5032 15.3913 24.5032 15.2617 24.4944 15.1326C25.0831 14.7068 25.5912 14.1796 25.9952 13.5756C25.4462 13.819 24.8637 13.9785 24.2674 14.0488C24.8954 13.673 25.3654 13.0817 25.5899 12.385C24.9994 12.7355 24.3534 12.9824 23.6797 13.1152C23.2262 12.6329 22.6264 12.3136 21.9731 12.2066C21.3197 12.0996 20.6494 12.2109 20.0657 12.5233C19.482 12.8356 19.0176 13.3317 18.7442 13.9346C18.4708 14.5376 18.4038 15.2138 18.5535 15.8587C17.3576 15.7987 16.1876 15.4879 15.1195 14.9464C14.0515 14.405 13.1092 13.645 12.3539 12.7158C11.9693 13.378 11.8515 14.162 12.0245 14.908C12.1975 15.654 12.6484 16.306 13.2853 16.7313C12.8065 16.7173 12.3382 16.5882 11.92 16.3548V16.3929C11.9202 17.0875 12.1606 17.7605 12.6004 18.298C13.0403 18.8354 13.6525 19.2042 14.3333 19.3417C13.8904 19.4625 13.4258 19.4802 12.975 19.3933C13.1673 19.991 13.5416 20.5136 14.0454 20.8882C14.5493 21.2627 15.1576 21.4704 15.7854 21.4823C15.1617 21.9726 14.4475 22.335 13.6836 22.5489C12.9197 22.7629 12.1211 22.8241 11.3335 22.7292C12.7091 23.6119 14.3098 24.0802 15.9443 24.078" fill="#3C4A41"/>
</svg>
