<svg width="36" height="36" viewBox="0 0 36 36" fill="none" xmlns="http://www.w3.org/2000/svg">
<path d="M25.9998 14.0003C25.8332 13.2503 25.2498 12.7503 24.4998 12.5003C23.2498 12.167 17.9998 12.167 17.9998 12.167C17.9998 12.167 12.7498 12.167 11.4998 12.5003C10.7498 12.667 10.1665 13.2503 9.99984 14.0003C9.6665 15.2503 9.6665 18.0003 9.6665 18.0003C9.6665 18.0003 9.6665 20.7503 9.99984 22.0003C10.1665 22.7503 10.7498 23.2503 11.4998 23.5003C12.7498 23.8337 17.9998 23.8337 17.9998 23.8337C17.9998 23.8337 23.2498 23.8337 24.4998 23.5003C25.2498 23.3337 25.7498 22.7503 25.9998 22.0003C26.3332 20.7503 26.3332 18.0003 26.3332 18.0003C26.3332 18.0003 26.3332 15.2503 25.9998 14.0003ZM16.3332 20.5003V15.5003L20.6665 18.0003L16.3332 20.5003Z" fill="#3C4A41"/>
</svg>
